<svg xmlns="http://www.w3.org/2000/svg">
    <symbol id="sun" viewBox="0 0 128 128">
        <circle cx="64" cy="64" r="33.13" fill="#FFE07D"/>
        <circle cx="64" cy="64" r="33.13" fill="#FFE07D"/>
        <path d="M64 24.46a1.88 1.88 0 01-1.88-1.88V1.88a1.88 1.88 0 013.76 0v20.7c0 1.04-.84 1.88-1.88 1.88zM34.71 36.59c-.48 0-.96-.18-1.32-.55L18.75 21.4a1.88 1.88 0 012.65-2.65l14.64 14.64a1.88 1.88 0 01-1.33 3.2zM22.58 65.88H1.88a1.87 1.87 0 110-3.75h20.7a1.88 1.88 0 010 3.74zM20.07 109.8a1.87 1.87 0 01-1.32-3.2l14.64-14.64a1.88 1.88 0 012.65 2.65L21.4 109.25c-.37.37-.85.55-1.33.55zM64 128a1.88 1.88 0 01-1.88-1.88v-20.7a1.88 1.88 0 013.76 0v20.7c0 1.04-.84 1.88-1.88 1.88zM107.93 109.8c-.48 0-.96-.18-1.33-.55L91.96 94.61a1.88 1.88 0 012.65-2.65l14.64 14.64a1.88 1.88 0 01-1.32 3.2zM126.13 65.88h-20.71a1.87 1.87 0 110-3.75h20.7a1.88 1.88 0 010 3.74zM93.29 36.59a1.87 1.87 0 01-1.33-3.2l14.64-14.64a1.88 1.88 0 012.66 2.65L94.6 36.04c-.36.37-.84.55-1.32.55z"
              fill="#FFE07D"/>
        <path d="M48.15 27.61c-.73 0-1.43-.43-1.73-1.16l-3.96-9.56a1.87 1.87 0 013.46-1.44l3.96 9.57a1.88 1.88 0 01-1.73 2.6zM25.73 50.03c-.23 0-.48-.05-.71-.15l-9.57-3.96a1.87 1.87 0 011.44-3.46l9.56 3.96a1.88 1.88 0 01-.71 3.6zM16.17 85.69a1.88 1.88 0 01-.72-3.61l9.57-3.96a1.88 1.88 0 011.43 3.46l-9.56 3.96c-.24.1-.48.15-.72.15zM44.19 113.7a1.87 1.87 0 01-1.73-2.6l3.96-9.55a1.88 1.88 0 013.46 1.43l-3.96 9.57c-.3.72-1 1.16-1.73 1.16zM83.81 113.7c-.73 0-1.43-.43-1.73-1.15l-3.96-9.57a1.88 1.88 0 013.46-1.43l3.96 9.56a1.87 1.87 0 01-1.73 2.6zM111.83 85.69c-.24 0-.48-.05-.72-.15l-9.56-3.96a1.88 1.88 0 011.43-3.46l9.57 3.96a1.88 1.88 0 01-.72 3.6zM102.27 50.03a1.88 1.88 0 01-.72-3.61l9.56-3.96a1.87 1.87 0 011.44 3.46l-9.57 3.96c-.23.1-.48.15-.72.15zM79.85 27.61a1.87 1.87 0 01-1.73-2.6l3.96-9.56a1.87 1.87 0 113.46 1.44l-3.96 9.56c-.3.73-1 1.16-1.73 1.16z"
              fill="#ff941d"/>
    </symbol>
    <symbol id="moon" viewBox="0 0 128 128">
        <path d="M127.56 71.46a49.28 49.28 0 01-86.5-45.82A49.07 49.07 0 0163.89 0a64 64 0 00-23.1 123.62 63.98 63.98 0 0086.78-52.16z"
              fill="#959CB3"/>
        <g fill="#7C8293">
            <path d="M31.12 15.7a49.28 49.28 0 0016.41 57.35A49.23 49.23 0 0163.88 0a64.1 64.1 0 00-28.06 6.56 49.47 49.47 0 00-4.7 9.13zM108.37 87.9a64 64 0 01-94.3 16.13 63.98 63.98 0 00113.49-32.57 49.16 49.16 0 01-19.19 16.43z"/>
        </g>
        <g fill="#AEB7CE">
            <circle cx="26.9" cy="52.69" r="7.35"/>
            <circle cx="78.54" cy="103.62" r="5.15"/>
            <circle cx="75.45" cy="116.93" r="3.64"/>
            <circle cx="56.43" cy="111.17" r="10.91"/>
            <circle cx="24.65" cy="85.49" r="5.11"/>
            <circle cx="11.19" cy="50.45" r="3.04"/>
        </g>
    </symbol>
    <symbol id="arrow" viewBox="0 0 128 128">
        <g>
            <path d="M123 60.94C90.18 53.87 44.78 89.72 10.2 65.5m0-.01C22.61 73.4 28.66 79.26 35 96M10.2 65.48C21.73 71.23 33.93 71.7 48 57"
                  fill="none" stroke-width="3" stroke="currentColor"
                  stroke-linecap="round" stroke-miterlimit="3"/>
        </g>
    </symbol>
</svg>
